<svg xmlns="http://www.w3.org/2000/svg" viewBox="0 0 352.22 42.39"><defs><style>.cls-1{isolation:isolate;}.cls-2{fill:none;stroke:#0e9790;stroke-linecap:round;stroke-linejoin:round;stroke-width:9.6px;mix-blend-mode:multiply;}</style></defs><title>title</title><g class="cls-1"><g id="layer" data-name="レイヤー 2"><g id="レイヤー_1-2" data-name="レイヤー 1"><line class="cls-2" x1="110.87" y1="23.22" x2="121.46" y2="37.6"/><path class="cls-2" d="M175.33,37.6V19.44A14.63,14.63,0,0,1,190,4.8h8.65"/><path class="cls-2" d="M258.93,4.8V23A14.65,14.65,0,0,0,273.57,37.6h8.65"/><line class="cls-2" x1="175.33" y1="23.22" x2="191.88" y2="23.22"/><line class="cls-2" x1="162.1" y1="4.8" x2="135.31" y2="4.8"/><line class="cls-2" x1="297.94" y1="37.6" x2="297.94" y2="4.8"/><line class="cls-2" x1="148.71" y1="37.6" x2="148.71" y2="4.8"/><circle class="cls-2" cx="331.02" cy="21.2" r="16.4"/><circle class="cls-2" cx="227.03" cy="21.2" r="16.4"/><circle class="cls-2" cx="62.51" cy="21.2" r="16.4"/><path class="cls-2" d="M94.7,37.6V19.44A14.64,14.64,0,0,1,109.34,4.8h2.89a9.21,9.21,0,0,1,0,18.42H94.7Z"/><path class="cls-2" d="M4.8,37.6V19.44A14.63,14.63,0,0,1,19.44,4.8h2.89a9.21,9.21,0,1,1,0,18.42H4.8Z"/></g></g></g></svg>