<svg xmlns="http://www.w3.org/2000/svg" viewBox="0 0 127 127"><defs><style>.cls-1{fill:none;}.cls-2{fill:#2effc0;}</style></defs><title>cat2_bg0</title><g id="レイヤー_2" data-name="レイヤー 2"><g id="レイヤー_1-2" data-name="レイヤー 1"><rect class="cls-1" width="127" height="127"/><path class="cls-2" d="M113.65,56.06v50.36a3.37,3.37,0,0,1-3.36,3.36h-22a3.37,3.37,0,0,1-3.36-3.36V56.06a3.37,3.37,0,0,1,3.36-3.36H89l2.43,4.7A2.9,2.9,0,0,0,94,59h10.41a3,3,0,0,0,2.68-1.6l2.43-4.69h.74A3.37,3.37,0,0,1,113.65,56.06Z"/><path class="cls-2" d="M101.73,28V50H88.26a6.09,6.09,0,0,0-6.08,6.08V73.85H15.35V28a3.93,3.93,0,0,1,3.92-3.92H97.8A3.93,3.93,0,0,1,101.73,28Z"/></g></g></svg>