<svg xmlns="http://www.w3.org/2000/svg" viewBox="0 0 127 127"><defs><style>.cls-1{fill:none;}.cls-2{fill:#2effc0;}</style></defs><title>cat3_bg0</title><g id="レイヤー_2" data-name="レイヤー 2"><g id="レイヤー_1-2" data-name="レイヤー 1"><rect class="cls-1" width="127" height="127"/><path class="cls-2" d="M95.7,38.34a13.39,13.39,0,0,1-1.42,5.89,17,17,0,0,1-3.92,5.15c-4.78,4.32-11.58,6-18.6,4.45a12.62,12.62,0,0,0-2.11-.23,6.48,6.48,0,0,0-1.19.12,3.09,3.09,0,0,0-.69.23A1.4,1.4,0,0,0,67,55.21a1.39,1.39,0,0,0,.1.53,2.39,2.39,0,0,0,.4.66,3.58,3.58,0,0,0,1.55,1.07,12.4,12.4,0,0,1,3.88,2.15,7.28,7.28,0,0,1,2.13,2.91,5.82,5.82,0,0,1,.41,2.18A6.75,6.75,0,0,1,74.55,68,10,10,0,0,1,71.94,71a10.93,10.93,0,0,1-4,1.91,18.26,18.26,0,0,1-4.5.51,32,32,0,0,1-5.85-.59c-1.88-.36-3.4-.79-3.94-.94a1.56,1.56,0,0,0-1.24.21,2,2,0,0,0-.66.93,1.41,1.41,0,0,0,.88,1.78,1.59,1.59,0,0,1,.58.34,1.88,1.88,0,0,1,.43.61,3.58,3.58,0,0,1,.31,1.52,6.91,6.91,0,0,1-.58,2.63,7.78,7.78,0,0,1-1.78,2.59,7.26,7.26,0,0,1-1.92,1.31,8,8,0,0,1-3.49.75,13.59,13.59,0,0,1-3.5-.56,20.5,20.5,0,0,1-4.13-1.79l0,0a4,4,0,0,0-.8-.36,2.11,2.11,0,0,0-1.07,0l-.2.07-.16.07a1.86,1.86,0,0,0-.48.36,1.33,1.33,0,0,0-.21.26L31,89.92l-5.89,9.46-.24.37a7.24,7.24,0,0,1-1.23,1.46,4,4,0,0,1-1.29.78,2.74,2.74,0,0,1-.9.17h0a2,2,0,0,1-1.14-.35,1.9,1.9,0,0,1-.72-.94,2.41,2.41,0,0,1-.13-.81,4,4,0,0,1,.59-2,.16.16,0,0,0,0-.07L56.43,36a27.49,27.49,0,0,1,9.09-9.2c6.31-3.87,13.69-4.54,19.82-1.76a22,22,0,0,1,7.31,5.47A12,12,0,0,1,95,34.26,11.52,11.52,0,0,1,95.7,38.34Z"/></g></g></svg>