<svg xmlns="http://www.w3.org/2000/svg" viewBox="0 0 127 127"><defs><style>.cls-1{fill:#2effc0;}.cls-2{fill:none;}</style></defs><title>cat5_bg0</title><g id="レイヤー_2" data-name="レイヤー 2"><g id="レイヤー_1-2" data-name="レイヤー 1"><path class="cls-1" d="M98.3,57A38,38,0,0,0,60.39,20.35l-1.37,0A37.94,37.94,0,0,0,22.45,59.66a38.37,38.37,0,0,0,38.38,36h1a1.38,1.38,0,0,1,1,.45,1.41,1.41,0,0,1,.37,1.11l-1,9.7A90.25,90.25,0,0,0,89.42,85.06,41.7,41.7,0,0,0,98.3,57Zm-38,25.69a5.16,5.16,0,1,1,5.16-5.16A5.17,5.17,0,0,1,60.3,82.66Zm7-26.42a.6.6,0,0,1-.08.08l-5.84,6.26V66a1.41,1.41,0,0,1-2.82,0V62a1.37,1.37,0,0,1,.38-1l6.67-7.16.08-.08A7.5,7.5,0,0,0,60,41.47h0A7.49,7.49,0,0,0,52.5,49a1.41,1.41,0,0,1-1.41,1.41h0A1.41,1.41,0,0,1,49.67,49,10.33,10.33,0,0,1,60,38.64h0a10.32,10.32,0,0,1,7.33,17.6Z"/><rect class="cls-2" width="127" height="127"/></g></g></svg>