<svg xmlns="http://www.w3.org/2000/svg" viewBox="0 0 127 127"><defs><style>.cls-1{fill:#6332f6;}.cls-2{fill:none;}</style></defs><title>cat_10</title><g id="レイヤー_2" data-name="レイヤー 2"><g id="レイヤー_1-2" data-name="レイヤー 1"><path class="cls-1" d="M69.24,21.64a43.09,43.09,0,0,0-6.46.48,42.86,42.86,0,0,0-6.45-.48,43.82,43.82,0,1,0,6.45,87.16,44.45,44.45,0,0,0,6.46.48,43.82,43.82,0,0,0,0-87.64Zm-6.46,84.3a41,41,0,0,1,0-81,41,41,0,0,1,0,81ZM15.33,65.46A41,41,0,0,1,53.51,24.57a43.81,43.81,0,0,0,0,81.78A41.06,41.06,0,0,1,15.33,65.46Zm56.73,40.89a43.81,43.81,0,0,0,0-81.78,41,41,0,0,1,0,81.78Z"/><rect class="cls-2" width="127" height="127"/></g></g></svg>