<svg xmlns="http://www.w3.org/2000/svg" viewBox="0 0 127 127"><defs><style>.cls-1{fill:#6332f6;}.cls-2{fill:none;}</style></defs><title>cat_50</title><g id="レイヤー_2" data-name="レイヤー 2"><g id="レイヤー_1-2" data-name="レイヤー 1"><path class="cls-1" d="M60,38.64h0A10.33,10.33,0,0,0,49.67,49a1.41,1.41,0,0,0,1.41,1.4h0A1.41,1.41,0,0,0,52.5,49,7.49,7.49,0,0,1,60,41.47h0a7.51,7.51,0,0,1,5.72,12.36l-.08.08L59,61.07a1.37,1.37,0,0,0-.38,1v4a1.41,1.41,0,0,0,2.82,0V62.58l5.84-6.26a.6.6,0,0,0,.08-.08A10.33,10.33,0,0,0,60,38.64Z"/><path class="cls-1" d="M60.3,72.34a5.16,5.16,0,1,0,5.16,5.16A5.17,5.17,0,0,0,60.3,72.34Zm0,7.5a2.34,2.34,0,1,1,2.33-2.34A2.33,2.33,0,0,1,60.3,79.84Z"/><path class="cls-1" d="M101.12,56.85A40.77,40.77,0,1,0,19.63,59.8,41.18,41.18,0,0,0,60.26,98.48L59.12,109.2a1.41,1.41,0,0,0,.59,1.3,1.44,1.44,0,0,0,.81.26,1.32,1.32,0,0,0,.62-.15A93,93,0,0,0,91.6,86.84,44.47,44.47,0,0,0,101.12,56.85ZM89.42,85.06A90.25,90.25,0,0,1,62.2,106.91l1-9.7a1.41,1.41,0,0,0-.37-1.11,1.38,1.38,0,0,0-1-.45h-1a38.37,38.37,0,0,1-38.38-36A37.94,37.94,0,0,1,59,20.38l1.37,0A38,38,0,0,1,98.3,57,41.7,41.7,0,0,1,89.42,85.06Z"/><rect class="cls-2" width="127" height="127"/></g></g></svg>