<svg xmlns="http://www.w3.org/2000/svg" viewBox="0 0 127 127"><defs><style>.cls-1{fill:none;}.cls-2{fill:#6332f6;}</style></defs><title>cat_30</title><g id="レイヤー_2" data-name="レイヤー 2"><g id="レイヤー_1-2" data-name="レイヤー 1"><rect class="cls-1" width="127" height="127"/><path class="cls-2" d="M97.59,33.27a14.52,14.52,0,0,0-2.84-4.64,24.82,24.82,0,0,0-8.25-6.16c-7-3.16-15.35-2.42-22.45,1.93A30.36,30.36,0,0,0,54,34.57L17.67,96.49l-.06.09a7,7,0,0,0-1,3.47,5.28,5.28,0,0,0,.3,1.78,4.68,4.68,0,0,0,1.8,2.32,4.83,4.83,0,0,0,2.71.82h0a5.7,5.7,0,0,0,1.82-.31,6.92,6.92,0,0,0,2.23-1.33,9.52,9.52,0,0,0,1.72-2l.27-.42c.85-1.35,3.48-5.58,5.9-9.48,1.7-2.72,3.29-5.28,4.09-6.58a22.79,22.79,0,0,0,4.37,1.86,14.86,14.86,0,0,0,4.29.67h0a10.94,10.94,0,0,0,4.69-1,10.38,10.38,0,0,0,2.66-1.82A10.52,10.52,0,0,0,55.91,81a9.45,9.45,0,0,0,.8-3.73,6.74,6.74,0,0,0-.23-1.79l.54.11a35,35,0,0,0,6.37.64,21.32,21.32,0,0,0,5.19-.6,13.64,13.64,0,0,0,5.09-2.41A12.94,12.94,0,0,0,77,69.42a9.64,9.64,0,0,0,1.28-4.71,8.82,8.82,0,0,0-.6-3.2,10.16,10.16,0,0,0-2.93-4l-.47-.38a23.14,23.14,0,0,0,18-5.63,19.91,19.91,0,0,0,4.56-6,16.19,16.19,0,0,0,1.7-7.13A14.23,14.23,0,0,0,97.59,33.27Zm-3.31,11a17,17,0,0,1-3.92,5.15c-4.78,4.32-11.58,6-18.6,4.45a12.62,12.62,0,0,0-2.11-.23,6.48,6.48,0,0,0-1.19.12,3.09,3.09,0,0,0-.69.23A1.4,1.4,0,0,0,67,55.21a1.39,1.39,0,0,0,.1.53,2.39,2.39,0,0,0,.4.66,3.58,3.58,0,0,0,1.55,1.07,12.4,12.4,0,0,1,3.88,2.15,7.28,7.28,0,0,1,2.13,2.91,5.82,5.82,0,0,1,.41,2.18A6.75,6.75,0,0,1,74.55,68,10,10,0,0,1,71.94,71a10.93,10.93,0,0,1-4,1.91,18.26,18.26,0,0,1-4.5.51,32,32,0,0,1-5.85-.59c-1.88-.36-3.4-.79-3.94-.94a1.56,1.56,0,0,0-1.24.21,2,2,0,0,0-.66.93,1.41,1.41,0,0,0,.88,1.78,1.59,1.59,0,0,1,.58.34,1.88,1.88,0,0,1,.43.61,3.58,3.58,0,0,1,.31,1.52,6.91,6.91,0,0,1-.58,2.63,7.78,7.78,0,0,1-1.78,2.59,7.26,7.26,0,0,1-1.92,1.31,8,8,0,0,1-3.49.75,13.59,13.59,0,0,1-3.5-.56,20.5,20.5,0,0,1-4.13-1.79l0,0a4,4,0,0,0-.8-.36,2.11,2.11,0,0,0-1.07,0l-.2.07-.16.07a1.86,1.86,0,0,0-.48.36,1.33,1.33,0,0,0-.21.26L31,89.92l-5.89,9.46-.24.37a7.24,7.24,0,0,1-1.23,1.46,4,4,0,0,1-1.29.78,2.74,2.74,0,0,1-.9.17h0a2,2,0,0,1-1.14-.35,1.9,1.9,0,0,1-.72-.94,2.41,2.41,0,0,1-.13-.81,4,4,0,0,1,.59-2,.16.16,0,0,0,0-.07L56.43,36a27.49,27.49,0,0,1,9.09-9.2c6.31-3.87,13.69-4.54,19.82-1.76a22,22,0,0,1,7.31,5.47A12,12,0,0,1,95,34.26h0a11.52,11.52,0,0,1,.74,4.08A13.39,13.39,0,0,1,94.28,44.23Z"/><path class="cls-2" d="M97,105.41H32a1.41,1.41,0,0,1,0-2.82H97a1.41,1.41,0,0,1,0,2.82Z"/></g></g></svg>