<svg xmlns="http://www.w3.org/2000/svg" viewBox="0 0 127 127"><defs><style>.cls-1{fill:#2effc0;}.cls-2{fill:#fff;}.cls-3{fill:none;}</style></defs><title>cat_1_bg0</title><g id="レイヤー_2" data-name="レイヤー 2"><g id="レイヤー_1-2" data-name="レイヤー 1"><path class="cls-1" d="M110.24,65.46a41.06,41.06,0,0,1-38.18,40.89,43.81,43.81,0,0,0,0-81.78A41.05,41.05,0,0,1,110.24,65.46Z"/><path class="cls-1" d="M53.51,106.35a41,41,0,0,1,0-81.78,43.81,43.81,0,0,0,0,81.78Z"/><path class="cls-2" d="M97.32,65.46a41.06,41.06,0,0,1-34.54,40.48,41,41,0,0,1,0-81A41.07,41.07,0,0,1,97.32,65.46Z"/><rect class="cls-3" width="127" height="127"/></g></g></svg>