<svg xmlns="http://www.w3.org/2000/svg" viewBox="0 0 127 127"><defs><style>.cls-1{fill:#6332f6;}.cls-2{fill:none;}</style></defs><title>cat_40</title><g id="レイヤー_2" data-name="レイヤー 2"><g id="レイヤー_1-2" data-name="レイヤー 1"><path class="cls-1" d="M106.1,58.51H53.67c-17.42,0-31.59-8.07-31.59-18s14.17-18,31.59-18,31.6,8.08,31.6,18a11.54,11.54,0,0,1-2.58,7,1.41,1.41,0,1,0,2.19,1.78,14.33,14.33,0,0,0,3.21-8.77c0-11.49-15.44-20.83-34.42-20.83S19.25,29,19.25,40.51v46.6c0,11.48,15.45,20.83,34.42,20.83H106.1a1.42,1.42,0,0,0,1.41-1.42V59.93A1.42,1.42,0,0,0,106.1,58.51Zm-1.41,46.6h-51c-17.42,0-31.59-8.07-31.59-18V48.76c5.29,7.39,17.46,12.58,31.59,12.58h51Z"/><path class="cls-1" d="M53.67,33.27c-6.23,0-11.12,3.18-11.12,7.24s4.89,7.24,11.12,7.24,11.08-3.15,11.12-7.18a3,3,0,0,0,0-.52h0C64.39,36.12,59.72,33.27,53.67,33.27ZM62,40.39a.49.49,0,0,0,0,.12c0,2.09-3.41,4.41-8.3,4.41s-8.29-2.32-8.29-4.41,3.41-4.41,8.29-4.41,8.1,2.15,8.31,4.22l1.4-.14Z"/><rect class="cls-2" width="127" height="127"/></g></g></svg>