<svg xmlns="http://www.w3.org/2000/svg" viewBox="0 0 43.97 43.97"><defs><style>.cls-1{fill:#2effc0;}.cls-2{fill:none;stroke:#000;stroke-miterlimit:10;stroke-width:1.49px;}.cls-3{font-size:12.24px;font-family:Lato-HeavyItalic, Lato;font-weight:800;font-style:italic;letter-spacing:0.06em;}</style></defs><g id="レイヤー_2" data-name="レイヤー 2"><g id="レイヤー_1-2" data-name="レイヤー 1"><path class="cls-1" d="M43.23,22c0,1.38-1.13,2.64-1.39,4s.29,2.94-.23,4.18-2,2-2.79,3.11S38,36.05,37,37s-2.64,1.06-3.77,1.82-1.85,2.27-3.11,2.79-2.84,0-4.18.23-2.57,1.39-4,1.39S19.34,42.1,18,41.84s-2.94.29-4.18-.23-2-2-3.12-2.79S7.93,38,7,37s-1.06-2.64-1.81-3.77-2.28-1.85-2.8-3.11,0-2.84-.23-4.18S.75,23.37.75,22,1.87,19.34,2.13,18s-.29-2.94.23-4.18,2-2,2.8-3.12S6,7.93,7,7s2.64-1.06,3.77-1.81,1.85-2.28,3.12-2.8,2.83,0,4.18-.23S20.6.75,22,.75s2.64,1.12,4,1.38,2.94-.29,4.18.23,2,2,3.11,2.8S36.05,6,37,7s1.06,2.64,1.82,3.77,2.27,1.85,2.79,3.12,0,2.83.23,4.18S43.23,20.6,43.23,22Z"/><path class="cls-2" d="M43.23,22c0,1.38-1.13,2.64-1.39,4s.29,2.94-.23,4.18-2,2-2.79,3.11S38,36.05,37,37s-2.64,1.06-3.77,1.82-1.85,2.27-3.11,2.79-2.84,0-4.18.23-2.57,1.39-4,1.39S19.34,42.1,18,41.84s-2.94.29-4.18-.23-2-2-3.12-2.79S7.93,38,7,37s-1.06-2.64-1.81-3.77-2.28-1.85-2.8-3.11,0-2.84-.23-4.18S.75,23.37.75,22,1.87,19.34,2.13,18s-.29-2.94.23-4.18,2-2,2.8-3.12S6,7.93,7,7s2.64-1.06,3.77-1.81,1.85-2.28,3.12-2.8,2.83,0,4.18-.23S20.6.75,22,.75s2.64,1.12,4,1.38,2.94-.29,4.18.23,2,2,3.11,2.8S36.05,6,37,7s1.06,2.64,1.82,3.77,2.27,1.85,2.79,3.12,0,2.83.23,4.18S43.23,20.6,43.23,22Z"/><text class="cls-3" transform="translate(7.54 27.23)">NEW</text></g></g></svg>