<svg xmlns="http://www.w3.org/2000/svg" viewBox="0 0 43.66 43.66"><defs><style>.cls-1{fill:#2effc0;}.cls-2{fill:none;stroke:#000;stroke-miterlimit:10;stroke-width:1.49px;}.cls-3{font-size:12.24px;font-family:Lato-HeavyItalic, Lato;font-weight:800;font-style:italic;letter-spacing:0.06em;}</style></defs><g id="レイヤー_2" data-name="レイヤー 2"><g id="レイヤー_1-2" data-name="レイヤー 1"><path class="cls-1" d="M42.35,16.33c.36,1.34-.41,2.85-.32,4.18s1,2.76.86,4.09S41.43,27.06,41,28.34s-.1,2.94-.78,4.11-2.28,1.7-3.17,2.73-1.2,2.67-2.29,3.51-2.74.69-4,1.3-2.12,2-3.46,2.36-2.84-.41-4.18-.32-2.76,1-4.09.86S16.6,41.43,15.32,41s-2.93-.1-4.11-.78-1.7-2.28-2.73-3.17S5.81,35.85,5,34.76s-.7-2.74-1.3-4-2-2.12-2.36-3.46.4-2.84.31-4.18-1-2.76-.86-4.09,1.46-2.46,1.89-3.74.1-2.93.78-4.11,2.28-1.7,3.17-2.73S7.81,5.81,8.9,5s2.74-.7,4-1.3,2.12-2,3.45-2.36,2.85.4,4.18.31,2.76-1,4.09-.86,2.46,1.46,3.74,1.89,2.94.1,4.11.78,1.7,2.28,2.73,3.17,2.67,1.2,3.51,2.29.69,2.74,1.3,4S42,15,42.35,16.33Z"/><path class="cls-2" d="M42.35,16.33c.36,1.34-.41,2.85-.32,4.18s1,2.76.86,4.09S41.43,27.06,41,28.34s-.1,2.94-.78,4.11-2.28,1.7-3.17,2.73-1.2,2.67-2.29,3.51-2.74.69-4,1.3-2.12,2-3.46,2.36-2.84-.41-4.18-.32-2.76,1-4.09.86S16.6,41.43,15.32,41s-2.93-.1-4.11-.78-1.7-2.28-2.73-3.17S5.81,35.85,5,34.76s-.7-2.74-1.3-4-2-2.12-2.36-3.46.4-2.84.31-4.18-1-2.76-.86-4.09,1.46-2.46,1.89-3.74.1-2.93.78-4.11,2.28-1.7,3.17-2.73S7.81,5.81,8.9,5s2.74-.7,4-1.3,2.12-2,3.45-2.36,2.85.4,4.18.31,2.76-1,4.09-.86,2.46,1.46,3.74,1.89,2.94.1,4.11.78,1.7,2.28,2.73,3.17,2.67,1.2,3.51,2.29.69,2.74,1.3,4S42,15,42.35,16.33Z"/><text class="cls-3" transform="matrix(0.97, -0.26, 0.26, 0.97, 9.24, 30.64)">NEW</text></g></g></svg>