<?xml version="1.0" encoding="utf-8"?>
<!-- Generator: Adobe Illustrator 24.3.0, SVG Export Plug-In . SVG Version: 6.00 Build 0)  -->
<svg version="1.1" id="レイヤー_1" xmlns="http://www.w3.org/2000/svg" xmlns:xlink="http://www.w3.org/1999/xlink" x="0px"
	 y="0px" viewBox="0 0 44 44" style="enable-background:new 0 0 44 44;" xml:space="preserve">
<style type="text/css">
	.st0{fill:#2EFFC0;}
</style>
<path class="st0" d="M41.8,23.9c0.3-0.7,0.6-1.3,0.6-1.9c0-0.6-0.3-1.2-0.6-1.9c-0.3-0.6-0.6-1.2-0.7-1.9c-0.1-0.6-0.1-1.3,0-1.9
	c0-0.8,0.1-1.5-0.1-2.1c-0.2-0.6-0.8-1-1.3-1.5c-0.5-0.4-1-0.9-1.4-1.4c-0.4-0.6-0.6-1.2-0.8-1.9c-0.2-0.7-0.5-1.4-0.9-1.8
	c-0.4-0.4-1.1-0.7-1.7-0.9c-0.6-0.2-1.3-0.4-1.9-0.9c-0.5-0.4-1-0.9-1.4-1.3c-0.5-0.6-1-1.1-1.6-1.4c-0.5-0.2-1.3-0.2-2-0.1
	c-0.7,0-1.3,0.1-2,0c-0.7-0.1-1.3-0.4-1.9-0.7c-0.7-0.3-1.3-0.6-1.9-0.6c-0.6,0-1.2,0.3-1.9,0.6c-0.6,0.3-1.2,0.6-2,0.8
	c-0.6,0.1-1.3,0.1-1.9,0c-0.8,0-1.5-0.1-2.1,0.1c-0.6,0.2-1,0.8-1.5,1.3c-0.4,0.5-0.9,1-1.5,1.4C10.6,6.2,10,6.4,9.3,6.6
	C8.6,6.9,8,7.1,7.5,7.5c-0.4,0.4-0.6,1-0.9,1.7c-0.2,0.6-0.4,1.3-0.9,1.9c-0.4,0.5-0.9,1-1.4,1.4c-0.6,0.5-1.1,1-1.4,1.6
	c-0.2,0.5-0.2,1.3-0.1,2c0,0.7,0.1,1.3,0,2c-0.1,0.7-0.4,1.3-0.7,1.9c-0.3,0.7-0.6,1.3-0.6,2c0,0.6,0.3,1.2,0.6,1.9
	c0.3,0.6,0.6,1.2,0.8,2c0.1,0.6,0.1,1.3,0,1.9c0,0.8-0.1,1.5,0.1,2.1c0.2,0.6,0.8,1,1.3,1.5c0.5,0.4,1,0.9,1.4,1.5
	c0.4,0.6,0.6,1.2,0.8,1.8c0.3,0.7,0.5,1.4,0.9,1.8c0.4,0.4,1,0.6,1.7,0.9c0.6,0.2,1.3,0.4,1.9,0.8c0.5,0.4,1,0.9,1.4,1.4
	c0.5,0.6,1,1.1,1.6,1.4c0.5,0.2,1.3,0.2,2,0.1c0.3,0,0.7,0,1,0c0.3,0,0.7,0,1,0.1c0.7,0.1,1.3,0.4,1.9,0.7c0.7,0.3,1.3,0.6,1.9,0.6
	c0.6,0,1.3-0.3,1.9-0.6c0.6-0.3,1.2-0.6,1.9-0.7c0.6-0.1,1.3-0.1,1.9,0c0.8,0,1.5,0.1,2.1-0.1c0.6-0.2,1-0.8,1.5-1.3
	c0.4-0.5,0.9-1,1.5-1.4c0.6-0.4,1.2-0.6,1.8-0.8c0.7-0.2,1.4-0.5,1.8-0.9c0.4-0.4,0.6-1.1,0.9-1.7c0.2-0.6,0.4-1.3,0.8-1.9
	c0.4-0.5,0.9-1,1.3-1.4c0.6-0.5,1.1-1,1.4-1.6c0.2-0.5,0.2-1.3,0.1-2c0-0.7-0.1-1.3,0-2C41.2,25.2,41.5,24.5,41.8,23.9z"/>
<g>
	<path d="M21.9,44c-1,0-1.8-0.4-2.6-0.8c-0.5-0.3-1-0.5-1.5-0.6c-0.5-0.1-1-0.1-1.6,0c-0.9,0.1-1.8,0.1-2.7-0.2
		c-0.9-0.4-1.5-1.1-2.1-1.7c-0.4-0.4-0.8-0.8-1.2-1.1c-0.4-0.3-0.9-0.5-1.5-0.6c-0.8-0.3-1.7-0.6-2.3-1.3c-0.6-0.7-0.9-1.5-1.2-2.3
		c-0.2-0.6-0.4-1.1-0.7-1.5c-0.3-0.4-0.7-0.8-1.1-1.2c-0.7-0.6-1.4-1.2-1.7-2.1c-0.4-0.9-0.3-1.8-0.3-2.7c0-0.6,0.1-1.1,0-1.6
		c-0.1-0.5-0.3-1-0.6-1.5C0.4,23.7,0,22.9,0,22c0-0.9,0.4-1.8,0.8-2.6c0.3-0.5,0.5-1.1,0.6-1.5c0.1-0.5,0.1-1,0-1.6
		c-0.1-0.9-0.1-1.8,0.3-2.7C2,12.7,2.7,12,3.4,11.4c0.4-0.4,0.8-0.8,1.1-1.2C4.8,9.9,5,9.3,5.2,8.8C5.5,8,5.8,7.1,6.5,6.5
		C7.2,5.8,8,5.5,8.8,5.2C9.4,5,9.9,4.8,10.4,4.6c0.4-0.3,0.8-0.7,1.2-1.1c0.6-0.7,1.2-1.4,2.1-1.7c0.9-0.4,1.8-0.3,2.7-0.3
		c0.6,0,1.1,0.1,1.6,0c0.5-0.1,1-0.3,1.5-0.6C20.2,0.4,21,0,22,0c1,0,1.8,0.4,2.6,0.8c0.5,0.3,1,0.5,1.5,0.6s1.1,0.1,1.7,0
		c0.9-0.1,1.8-0.1,2.7,0.3C31.3,2,32,2.7,32.6,3.4c0.4,0.4,0.8,0.8,1.1,1.1c0.4,0.3,0.9,0.5,1.5,0.7c0.8,0.3,1.7,0.6,2.3,1.3
		c0.6,0.7,0.9,1.5,1.2,2.4c0.2,0.6,0.4,1.1,0.7,1.5c0.3,0.4,0.7,0.8,1.1,1.2c0.7,0.6,1.4,1.2,1.7,2.1c0.4,0.9,0.3,1.8,0.3,2.7
		c0,0.6-0.1,1.1,0,1.6c0.1,0.5,0.3,1,0.6,1.5C43.6,20.2,44,21,44,22c0,0.9-0.4,1.8-0.8,2.6c-0.3,0.5-0.5,1.1-0.6,1.6
		c-0.1,0.5-0.1,1.1,0,1.7c0.1,0.9,0.1,1.8-0.3,2.7c-0.4,0.9-1.1,1.5-1.7,2.1c-0.4,0.4-0.8,0.8-1.1,1.1c-0.3,0.4-0.5,0.9-0.6,1.5
		c-0.3,0.8-0.6,1.7-1.3,2.3c-0.7,0.6-1.5,0.9-2.4,1.2c-0.6,0.2-1.1,0.4-1.5,0.7c-0.4,0.3-0.8,0.7-1.2,1.1c-0.6,0.7-1.2,1.4-2.1,1.7
		c-0.9,0.4-1.8,0.3-2.7,0.3c-0.6,0-1.1-0.1-1.6,0c-0.5,0.1-1,0.3-1.5,0.6C23.8,43.5,22.9,44,21.9,44z M17.1,41c0.3,0,0.7,0,1,0.1
		c0.7,0.1,1.3,0.4,1.9,0.7c0.7,0.3,1.3,0.6,1.9,0.6c0.6,0,1.3-0.3,1.9-0.6c0.6-0.3,1.2-0.6,1.9-0.7c0.6-0.1,1.3-0.1,1.9,0
		c0.8,0,1.5,0.1,2.1-0.1c0.6-0.2,1-0.8,1.5-1.3c0.4-0.5,0.9-1,1.5-1.4c0.6-0.4,1.2-0.6,1.8-0.8c0.7-0.2,1.4-0.5,1.8-0.9
		c0.4-0.4,0.6-1.1,0.9-1.7c0.2-0.6,0.4-1.3,0.8-1.9c0.4-0.5,0.9-1,1.3-1.4c0.6-0.5,1.1-1,1.4-1.6c0.2-0.5,0.2-1.3,0.1-2
		c0-0.7-0.1-1.3,0-2c0.1-0.7,0.4-1.3,0.7-1.9c0.3-0.7,0.6-1.3,0.6-1.9c0-0.6-0.3-1.2-0.6-1.9c-0.3-0.6-0.6-1.2-0.7-1.9
		c-0.1-0.6-0.1-1.3,0-1.9c0-0.8,0.1-1.5-0.1-2.1c-0.2-0.6-0.8-1-1.3-1.5c-0.5-0.4-1-0.9-1.4-1.4c-0.4-0.6-0.6-1.2-0.8-1.9
		c-0.2-0.7-0.5-1.4-0.9-1.8c-0.4-0.4-1.1-0.7-1.7-0.9c-0.6-0.2-1.3-0.4-1.9-0.9c-0.5-0.4-1-0.9-1.4-1.3c-0.5-0.6-1-1.1-1.6-1.4
		c-0.5-0.2-1.3-0.2-2-0.1c-0.7,0-1.3,0.1-2,0c-0.7-0.1-1.3-0.4-1.9-0.7c-0.7-0.3-1.3-0.6-1.9-0.6c-0.6,0-1.2,0.3-1.9,0.6
		c-0.6,0.3-1.2,0.6-2,0.8c-0.6,0.1-1.3,0.1-1.9,0c-0.8,0-1.5-0.1-2.1,0.1c-0.6,0.2-1,0.8-1.5,1.3c-0.4,0.5-0.9,1-1.5,1.4
		C10.6,6.2,10,6.4,9.3,6.6C8.6,6.9,8,7.1,7.5,7.5c-0.4,0.4-0.6,1-0.9,1.7c-0.2,0.6-0.4,1.3-0.9,1.9c-0.4,0.5-0.9,1-1.4,1.4
		c-0.6,0.5-1.1,1-1.4,1.6c-0.2,0.5-0.2,1.3-0.1,2c0,0.7,0.1,1.3,0,2c-0.1,0.7-0.4,1.3-0.7,1.9c-0.3,0.7-0.6,1.3-0.6,2
		c0,0.6,0.3,1.2,0.6,1.9c0.3,0.6,0.6,1.2,0.8,2c0.1,0.6,0.1,1.3,0,1.9c0,0.8-0.1,1.5,0.1,2.1c0.2,0.6,0.8,1,1.3,1.5
		c0.5,0.4,1,0.9,1.4,1.5c0.4,0.6,0.6,1.2,0.8,1.8c0.3,0.7,0.5,1.4,0.9,1.8c0.4,0.4,1,0.6,1.7,0.9c0.6,0.2,1.3,0.4,1.9,0.8
		c0.5,0.4,1,0.9,1.4,1.4c0.5,0.6,1,1.1,1.6,1.4c0.5,0.2,1.3,0.2,2,0.1C16.5,41,16.8,41,17.1,41z"/>
</g>
<path d="M16.3,18.4l-1.1,8.9h-0.9c-0.1,0-0.3,0-0.3-0.1c-0.1,0-0.2-0.1-0.2-0.2l-3.3-5.8c0,0.1,0,0.2,0,0.3c0,0.1,0,0.2,0,0.3
	l-0.7,5.5H8.2l1.1-8.9h0.9c0.1,0,0.1,0,0.2,0c0.1,0,0.1,0,0.1,0c0,0,0.1,0,0.1,0.1c0,0,0.1,0.1,0.1,0.1l3.3,5.8c0-0.1,0-0.3,0-0.4
	c0-0.1,0-0.2,0-0.3l0.6-5.4H16.3z"/>
<path d="M20.4,19.7l-0.3,2.4h2.7l-0.2,1.3H20l-0.3,2.4h3.5L23,27.2h-5.2l1.1-8.9H24l-0.2,1.4H20.4z"/>
<path d="M37.3,18.4l-3.6,8.9h-1.6l-0.9-5.9c0-0.1,0-0.2,0-0.3c0-0.1,0-0.2,0-0.3C31,21,31,21.2,30.9,21.3l-2.4,5.9h-1.6l-1.4-8.9
	h1.4c0.2,0,0.3,0,0.4,0.1c0.1,0.1,0.1,0.2,0.2,0.3l0.7,5.2c0,0.1,0,0.3,0,0.5c0,0.2,0,0.3,0,0.5c0.1-0.2,0.1-0.3,0.2-0.5
	c0.1-0.2,0.1-0.3,0.2-0.4l2-5.2c0,0,0.1-0.1,0.1-0.1s0.1-0.1,0.1-0.1c0.1,0,0.1-0.1,0.2-0.1s0.1,0,0.2,0h0.4c0.2,0,0.3,0,0.4,0.1
	c0.1,0.1,0.1,0.2,0.2,0.3l0.8,5.2c0,0.1,0,0.3,0.1,0.4c0,0.2,0,0.3,0,0.5c0-0.2,0.1-0.3,0.1-0.5c0.1-0.2,0.1-0.3,0.1-0.4l1.9-5.2
	c0-0.1,0.1-0.2,0.2-0.3c0.1-0.1,0.3-0.1,0.4-0.1H37.3z"/>
</svg>
