<svg xmlns="http://www.w3.org/2000/svg" viewBox="0 0 127 127"><defs><style>.cls-1{fill:none;}.cls-2{fill:#6332f6;}</style></defs><title>cat_20</title><g id="レイヤー_2" data-name="レイヤー 2"><g id="レイヤー_1-2" data-name="レイヤー 1"><rect class="cls-1" width="127" height="127"/><path class="cls-2" d="M110.29,50h-5.94V28A6.56,6.56,0,0,0,97.8,21.5H19.27A6.56,6.56,0,0,0,12.73,28V85.63a6.56,6.56,0,0,0,6.54,6.55H51.32l-7.07,16.5a1.31,1.31,0,0,0,.11,1.23,1.3,1.3,0,0,0,1.09.59H71.63a1.3,1.3,0,0,0,1.09-.59,1.31,1.31,0,0,0,.11-1.23l-7.07-16.5H82.18v14.24a6.09,6.09,0,0,0,6.08,6.08h22a6.09,6.09,0,0,0,6.08-6.08V56.06A6.09,6.09,0,0,0,110.29,50Zm-5.59,6.15a.24.24,0,0,1-.24.14H94.06a.26.26,0,0,1-.22-.14L92.07,52.7h14.41ZM69.64,107.88H47.44l6.73-15.7h8.74ZM63.77,89.56H19.27a3.93,3.93,0,0,1-3.92-3.93V76.47H82.18V89.56Zm18.41-33.5V73.85H15.35V28a3.93,3.93,0,0,1,3.92-3.92H97.8A3.93,3.93,0,0,1,101.73,28V50H88.26A6.09,6.09,0,0,0,82.18,56.06Zm31.47,50.36a3.37,3.37,0,0,1-3.36,3.36h-22a3.37,3.37,0,0,1-3.36-3.36V56.06a3.37,3.37,0,0,1,3.36-3.36H89l2.43,4.7A2.9,2.9,0,0,0,94,59h10.41a3,3,0,0,0,2.68-1.6l2.43-4.69h.74a3.37,3.37,0,0,1,3.36,3.36Z"/></g></g></svg>